<svg width="280" height="198" viewBox="0 0 280 198" fill="none" xmlns="http://www.w3.org/2000/svg">
<path fill-rule="evenodd" clip-rule="evenodd" d="M84.6149 167.172C51.8635 153.688 13.9689 169.59 3.09391 138.528C-7.52369 108.2 10.8243 69.3401 33.2043 42.813C53.6226 18.6119 87.6934 14.6929 119.005 4.07936C153.85 -7.73247 177.317 7.94231 205.255 27.6274C232.036 46.4982 264.026 55.0954 259.683 86.553C256.244 111.456 236.042 111.872 219.584 132.808C203.595 153.148 214.418 177.474 169.23 195.572C121.87 204.355 108.566 177.033 84.6149 167.172Z" fill="#F3ECF9"/>
<rect x="23.1016" y="30.75" width="219.675" height="144.949" rx="3.67137" fill="white" stroke="#424242"/>
<path d="M27.1906 30.75H238.688C240.946 30.75 242.777 32.5807 242.777 34.839V44.548H23.1016V34.839C23.1016 32.5807 24.9323 30.75 27.1906 30.75Z" fill="#F4F4F4" stroke="#424242"/>
<path d="M23.1016 44.4922H43.8253V175.699H26.7729C24.7453 175.699 23.1016 174.055 23.1016 172.027V44.4922Z" fill="#2E5CFF" stroke="#424242"/>
<circle cx="31.8054" cy="37.6496" r="1.99776" fill="#FF602E"/>
<circle cx="38.1399" cy="37.6496" r="1.99776" fill="#FFBB22"/>
<circle cx="44.4738" cy="37.6496" r="1.99776" fill="#8AE11A"/>
<rect x="27.9932" y="55.5522" width="10.9429" height="10.9429" rx="2.93078" fill="white"/>
<rect x="30.6519" y="76.9995" width="5.62437" height="5.62437" rx="1.14129" fill="white"/>
<rect x="30.6519" y="92.4331" width="5.62437" height="5.62437" rx="1.14129" fill="white" fill-opacity="0.7"/>
<rect x="30.6519" y="107.866" width="5.62437" height="5.62437" rx="1.14129" fill="white" fill-opacity="0.7"/>
<rect x="30.6519" y="123.299" width="5.62437" height="5.62437" rx="1.14129" fill="white" fill-opacity="0.7"/>
<rect x="30.6519" y="138.733" width="5.62437" height="5.62437" rx="1.14129" fill="white" fill-opacity="0.7"/>
<rect x="57.1133" y="67.4189" width="70.6403" height="4.51156" rx="2.25578" fill="#D9D9D9"/>
<rect x="57.1133" y="79.8125" width="125.105" height="3.38367" rx="1.69183" fill="#E8E8E8"/>
<rect x="12.6279" y="81.7705" width="4.29141" height="4.29141" transform="rotate(-45 12.6279 81.7705)" fill="#2E5CFF"/>
<path d="M22.5981 81.7705H27.3665" stroke="#2E5CFF"/>
<path d="M4.39111 81.7705H9.15949" stroke="#2E5CFF"/>
<path d="M15.6631 89.1401L15.6631 93.9085" stroke="#2E5CFF"/>
<path d="M15.6631 70.0669L15.6631 74.8353" stroke="#2E5CFF"/>
<rect x="114.5" y="14.209" width="4.29141" height="4.29141" transform="rotate(-45 114.5 14.209)" fill="#FF4800"/>
<path d="M124.47 14.209H129.239" stroke="#FF4800"/>
<path d="M106.263 14.209H111.032" stroke="#FF4800"/>
<path d="M117.534 21.5781L117.534 26.3465" stroke="#FF4800"/>
<path d="M117.534 2.50488L117.534 7.27326" stroke="#FF4800"/>
<rect x="251.236" y="26.7036" width="4.29141" height="4.29141" transform="rotate(-45 251.236 26.7036)" fill="#FF4800"/>
<path d="M261.206 26.7036H265.974" stroke="#FF4800"/>
<path d="M243 26.7036H247.768" stroke="#FF4800"/>
<path d="M254.271 34.0728L254.271 38.8411" stroke="#FF4800"/>
<path d="M254.271 15L254.271 19.7684" stroke="#FF4800"/>
<circle cx="50.5205" cy="191.188" r="4.16215" stroke="#FF4800"/>
<rect x="63.3252" y="96.1709" width="150.205" height="68.726" rx="2.93078" fill="white"/>
<rect x="67.8804" y="101.949" width="44.74" height="3.43811" rx="1.71906" fill="#D9D9D9"/>
<rect x="70.813" y="111.655" width="6.43752" height="3.46694" rx="1.73347" fill="#E8E8E8"/>
<rect x="70.813" y="120.361" width="6.43752" height="3.46694" rx="1.73347" fill="#E8E8E8"/>
<rect x="70.813" y="129.066" width="6.43752" height="3.46694" rx="1.73347" fill="#E8E8E8"/>
<rect x="70.813" y="137.772" width="6.43752" height="3.46694" rx="1.73347" fill="#E8E8E8"/>
<rect x="70.813" y="146.478" width="6.43752" height="3.46694" rx="1.73347" fill="#E8E8E8"/>
<path d="M80.9106 156.528H207.632" stroke="#E8E8E8"/>
<path d="M80.9106 146.409H207.632" stroke="#E8E8E8"/>
<path d="M80.9106 136.291H207.632" stroke="#E8E8E8"/>
<path d="M80.9106 126.171H207.632" stroke="#E8E8E8"/>
<path d="M80.9106 116.052H207.632" stroke="#E8E8E8"/>
<g clip-path="url(#clip0_661_45495)">
<rect x="117.589" y="170.707" width="2.61764" height="2.48932" fill="white"/>
</g>
<rect x="147.988" y="170.707" width="2.61764" height="2.48932" fill="white"/>
<path fill-rule="evenodd" clip-rule="evenodd" d="M92.8652 123.908H98.8557V156.634H92.8652V123.908Z" fill="#30C48A"/>
<path fill-rule="evenodd" clip-rule="evenodd" d="M84.9175 111.3H90.9079V156.634H84.9175V111.3Z" fill="#2E5CFF"/>
<path fill-rule="evenodd" clip-rule="evenodd" d="M119.141 126.858H125.132V156.902H119.141V126.858Z" fill="#30C48A"/>
<path fill-rule="evenodd" clip-rule="evenodd" d="M111.193 123.639H117.184V156.902H111.193V123.639Z" fill="#2E5CFF"/>
<path fill-rule="evenodd" clip-rule="evenodd" d="M145.427 140.271H151.417V156.903H145.427V140.271Z" fill="#30C48A"/>
<path fill-rule="evenodd" clip-rule="evenodd" d="M137.479 119.347L143.469 119.347V156.902H137.479V119.347Z" fill="#2E5CFF"/>
<path fill-rule="evenodd" clip-rule="evenodd" d="M171.615 143.161H177.605V156.852H171.615V143.161Z" fill="#30C48A"/>
<path fill-rule="evenodd" clip-rule="evenodd" d="M163.878 130.715L169.869 130.715V156.853H163.878V130.715Z" fill="#2E5CFF"/>
<path fill-rule="evenodd" clip-rule="evenodd" d="M198.077 146.398H204.068V156.853H198.077V146.398Z" fill="#30C48A"/>
<path fill-rule="evenodd" clip-rule="evenodd" d="M190.04 119.347L196.03 119.347V156.902H190.04V119.347Z" fill="#2E5CFF"/>
<rect x="8.1084" y="130.622" width="91.3955" height="60.4722" rx="2.43078" fill="white" stroke="#424242"/>
<rect x="16.5811" y="147.155" width="7.43231" height="4.00269" rx="2.00134" fill="#E8E8E8"/>
<rect x="13.5537" y="137.866" width="33.2796" height="4.00269" rx="2.00134" fill="#D9D9D9"/>
<rect x="16.5811" y="157.978" width="7.43231" height="4.00269" rx="2.00134" fill="#E8E8E8"/>
<rect x="16.5811" y="168.799" width="7.43231" height="4.00269" rx="2.00134" fill="#E8E8E8"/>
<rect x="16.5811" y="179.62" width="7.43231" height="4.00269" rx="2.00134" fill="#E8E8E8"/>
<path d="M26.5083 159.979H93.4108" stroke="#E8E8E8"/>
<path d="M26.5083 170.801H93.4108" stroke="#E8E8E8"/>
<path d="M26.5083 181.623H93.4108" stroke="#E8E8E8"/>
<path d="M26.5083 149.157H93.4108" stroke="#E8E8E8"/>
<path d="M26.6289 176.169L39.9854 178.854L52.8888 170.664L66.3221 173.677L80.0547 156.864L93.4112 154.426" stroke="#30C48A"/>
<path d="M26.6289 162.933L39.9886 166.55L52.7288 157.332L66.315 158.643L79.964 168.146L93.6067 166.271" stroke="#2E5CFF"/>
<circle cx="244.143" cy="92.4326" r="27.3354" fill="#FFBB22" stroke="#424242"/>
<mask id="path-70-inside-1_661_45495" fill="white">
<path d="M267.622 107.383C264.927 111.617 261.137 115.042 256.654 117.298C252.171 119.554 247.161 120.555 242.155 120.197C237.15 119.839 232.334 118.133 228.218 115.262C224.102 112.391 220.838 108.46 218.773 103.886C216.708 99.3121 215.918 94.2648 216.487 89.2785C217.056 84.2922 218.962 79.5524 222.004 75.5608C225.046 71.5691 229.11 68.4742 233.767 66.6034C238.424 64.7326 243.5 64.1557 248.458 64.9336L244.143 92.4326L267.622 107.383Z"/>
</mask>
<path d="M267.622 107.383C264.927 111.617 261.137 115.042 256.654 117.298C252.171 119.554 247.161 120.555 242.155 120.197C237.15 119.839 232.334 118.133 228.218 115.262C224.102 112.391 220.838 108.46 218.773 103.886C216.708 99.3121 215.918 94.2648 216.487 89.2785C217.056 84.2922 218.962 79.5524 222.004 75.5608C225.046 71.5691 229.11 68.4742 233.767 66.6034C238.424 64.7326 243.5 64.1557 248.458 64.9336L244.143 92.4326L267.622 107.383Z" fill="#30C48A" stroke="#424242" stroke-width="2" mask="url(#path-70-inside-1_661_45495)"/>
<mask id="path-71-inside-2_661_45495" fill="white">
<path d="M271.656 96.6603C270.994 100.964 269.332 105.053 266.803 108.598C264.274 112.143 260.948 115.046 257.094 117.072C253.239 119.098 248.963 120.191 244.609 120.264C240.255 120.337 235.944 119.387 232.024 117.491C228.104 115.595 224.683 112.806 222.037 109.348C219.39 105.889 217.592 101.858 216.787 97.5784C215.982 93.2987 216.193 88.8899 217.401 84.7063C218.61 80.5228 220.784 76.6811 223.747 73.4903L244.143 92.4326L271.656 96.6603Z"/>
</mask>
<path d="M271.656 96.6603C270.994 100.964 269.332 105.053 266.803 108.598C264.274 112.143 260.948 115.046 257.094 117.072C253.239 119.098 248.963 120.191 244.609 120.264C240.255 120.337 235.944 119.387 232.024 117.491C228.104 115.595 224.683 112.806 222.037 109.348C219.39 105.889 217.592 101.858 216.787 97.5784C215.982 93.2987 216.193 88.8899 217.401 84.7063C218.61 80.5228 220.784 76.6811 223.747 73.4903L244.143 92.4326L271.656 96.6603Z" fill="#2E5CFF" stroke="#424242" stroke-width="2" mask="url(#path-71-inside-2_661_45495)"/>
<rect x="208.821" y="132.97" width="70.678" height="50.8516" rx="1.9721" fill="white" stroke="#424242"/>
<rect x="218.589" y="158.12" width="6.13871" height="20.1554" rx="3.06936" fill="#FFBB22" stroke="#424242"/>
<rect x="229.84" y="152.11" width="6.13871" height="26.1655" rx="3.06936" fill="#FFBB22" stroke="#424242"/>
<rect x="241.091" y="146.685" width="6.13871" height="31.5922" rx="3.06936" fill="#FFBB22" stroke="#424242"/>
<rect x="252.343" y="142.839" width="6.13871" height="35.4368" rx="3.06936" fill="#FFBB22" stroke="#424242"/>
<rect x="263.594" y="138.515" width="6.13871" height="39.7606" rx="3.06936" fill="#FFBB22" stroke="#424242"/>
<defs>
<clipPath id="clip0_661_45495">
<rect x="117.587" y="170.458" width="26.9053" height="2.98719" fill="white"/>
</clipPath>
</defs>
</svg>
